<svg width="746" height="565" viewBox="0 0 746 565" fill="none" xmlns="http://www.w3.org/2000/svg">
<path d="M706.293 545.807C698.038 511.914 716.527 382.519 565.805 372.418C455.833 365.047 454.559 517.956 331.553 437.814" stroke="#DED2FA" stroke-width="3.03309" stroke-linecap="round" stroke-linejoin="round" stroke-dasharray="10.11 10.11"/>
<path d="M322.975 255.738C322.975 116.7 210.262 3.9873 71.2239 3.9873C63.5992 3.9873 57.4182 10.1683 57.4182 17.793V456.949C57.4182 471.924 69.5575 484.063 84.5321 484.063H298.017C311.801 484.063 322.975 472.889 322.975 459.105V255.738Z" fill="#EEF9FE"/>
<g clip-path="url(#clip0_230_3895)">
<path d="M253.572 314.743L251.805 335.013L246.077 400.948L242.33 444.121L232.189 554.411L196.541 557.651L179.508 371.05C179.508 371.05 173.495 278.649 205.882 276.1C238.283 273.55 253.216 286.07 253.572 314.743Z" fill="#5A9687"/>
<path d="M263.845 319.969C261.201 324.183 257.794 326.177 256.928 331.285C256.011 336.701 256.629 342.436 256.316 347.917C255.42 363.566 254.597 379.22 253.668 394.867C251.832 425.783 250.34 457.62 244.681 488.11C244.321 490.05 247.253 490.901 247.673 488.934C250.473 475.828 251.279 462.352 252.517 449.031C253.948 433.635 255.152 418.226 256.034 402.788C256.881 387.956 257.569 373.114 258.305 358.276C258.628 351.772 259.058 345.275 258.984 338.762C258.951 335.919 258.692 332.64 259.581 329.902C260.7 326.453 263.91 324.121 265.771 321.095C266.525 319.868 264.606 318.756 263.845 319.969Z" fill="white"/>
<path d="M256.315 483.991C252.964 492.169 249.717 501.874 249.127 510.749C248.438 521.125 248.63 531.463 247.187 541.807C246.957 543.455 249.484 544.162 249.709 542.502C250.958 533.268 252.838 524.066 252.884 514.721C252.935 504.324 256.322 494.466 257.096 484.096C257.132 483.611 256.47 483.612 256.315 483.991Z" fill="white"/>
<path d="M197.573 341.091C197.573 341.091 205.989 340.725 208.193 338.104C208.193 338.104 215.206 308.039 214.805 293.617" fill="#473C6B"/>
<path d="M197.573 341.091C197.573 341.091 205.989 340.725 208.193 338.104C208.193 338.104 215.206 308.039 214.805 293.617" stroke="#473C6B" stroke-width="1.33795" stroke-miterlimit="10" stroke-linecap="round" stroke-linejoin="round"/>
<path d="M209.103 301.554L200.241 339.599L196.607 351.365L149.63 503.704L121.541 558.114C121.541 558.114 91.4478 559.367 91.4478 558.114C91.4478 556.846 121.802 315.356 121.802 315.356C121.802 315.356 126.233 276 164.933 271.599C203.632 267.197 209.103 301.554 209.103 301.554Z" fill="#80BDAE"/>
<path d="M107.772 346.134C107.083 356.849 103.906 367.724 102.079 378.312C100.217 389.095 98.4243 399.892 96.7928 410.713C96.4968 412.675 99.4485 413.57 99.8335 411.551C102.044 399.96 104.104 388.332 106.013 376.688C107.664 366.623 109.979 356.378 109.131 346.134C109.059 345.266 107.829 345.255 107.772 346.134Z" fill="white"/>
<path d="M95.5875 428.182C95.5958 431.336 95.1889 434.452 94.5323 437.535C93.9993 440.038 93.1307 442.436 93.0352 445.011C93.0067 445.781 94.0849 446.267 94.6108 445.663C98.5759 441.111 98.421 433.836 97.8435 428.182C97.6992 426.769 95.5835 426.7 95.5875 428.182Z" fill="#FEFAFA"/>
<path d="M88.104 460.074C85.4853 474.02 85.1989 488.494 83.0424 502.552C80.8637 516.754 78.0368 530.744 74.7872 544.732C74.5289 545.844 76.1381 546.283 76.493 545.202C81.0697 531.267 84.6352 516.807 86.9156 502.318C89.0518 488.745 91.5356 474.09 90.1687 460.354C90.0611 459.272 88.3405 458.815 88.104 460.074Z" fill="#FEFAFA"/>
<path d="M331.638 180.634C332.062 180.293 336.733 180.306 336.733 180.306C336.733 180.306 356.105 174.102 360.899 170.95C365.692 167.799 362.218 164.39 357.835 165.986C353.452 167.581 341.409 166.546 341.409 166.546L335.036 173.902L331.638 180.634Z" fill="#EFA097"/>
<path d="M342.549 155.127C342.549 155.127 357.908 150.936 359.821 147.909C361.735 144.882 359.904 142.166 355.532 143.236C351.159 144.305 339.603 146.674 339.603 146.674L342.549 155.127Z" fill="#EFA097"/>
<path d="M340.881 144.521C340.881 144.521 356.24 140.331 358.154 137.304C360.067 134.276 358.236 131.561 353.864 132.63C349.491 133.699 337.935 136.069 337.935 136.069L340.881 144.521Z" fill="#EFA097"/>
<path d="M340.674 135.449C340.674 135.449 354.852 128.207 356.107 124.853C357.362 121.498 355.015 119.214 350.953 121.154C346.892 123.095 338.012 128.923 338.012 128.923L340.674 135.449Z" fill="#EFA097"/>
<path d="M350.377 116.953C348.134 118.443 342.961 122.826 339.29 126.273C337.255 128.185 335.682 129.808 335.338 130.509C334.363 132.469 325.27 161.534 325.27 161.534L298.894 185.924L319.682 198.491C319.682 198.491 330.353 199.846 330.949 199.367C331.546 198.888 335.338 190.196 335.338 190.196C335.338 190.196 337.757 184.521 341.798 182.248C345.853 179.972 349.355 174.332 349.518 171.848C349.68 169.363 346.744 133.117 347.313 130.895C347.882 128.673 356.185 121.106 356.242 118.134C356.311 115.145 353.852 114.627 350.377 116.953Z" fill="#F5C3C0"/>
<path d="M339.601 125.826C337.566 127.738 335.993 129.361 335.649 130.062C334.674 132.022 325.581 161.087 325.581 161.087L298.043 186.752L312.743 194.462C314.633 189.316 324.161 172.925 329.113 169.945C336.351 165.611 335.575 159.86 336.921 144.846C337.64 136.848 338.442 130.508 339.601 125.826Z" fill="#EFA097"/>
<path d="M335.288 199.953C335.288 199.953 321.282 240.705 303.97 265.532C297.045 275.474 289.593 282.853 282.283 284.078C274.746 285.331 268.747 283.964 263.803 280.858C251.934 273.423 246.006 256.045 239.082 240.705C238.968 240.448 238.854 240.178 238.74 239.893C238.654 239.665 238.569 239.437 238.483 239.209C232.442 221.96 242.843 178.886 248.785 157.278C250.922 149.501 252.475 144.501 252.475 144.501C252.475 144.501 262.193 147.706 263.803 151.509C265.413 155.312 275.216 216.789 275.216 216.789L293.967 176.308C293.967 176.308 305.936 182.176 317.691 188.828C324.359 192.589 330.957 196.62 335.288 199.953Z" fill="#EE9087"/>
<path d="M264.513 143.385C266.096 144.794 267.642 147.153 268.724 148.982C269.645 150.539 270.06 153.153 271.628 154.108C272.044 154.362 272.633 154.204 272.873 153.782C273.954 151.883 272.104 148.871 271.018 147.287C269.371 144.887 267.646 143.881 265.134 142.58C264.641 142.325 264.057 142.98 264.513 143.385Z" fill="white"/>
<path d="M273.432 162.008C275.016 173.77 274.713 185.8 276.465 197.478C276.628 198.568 278.5 198.567 278.665 197.478C280.417 185.882 277.668 172.86 274.594 161.688C274.382 160.916 273.332 161.265 273.432 162.008Z" fill="white"/>
<path d="M333.334 219.187C328.817 228.801 324.139 238.41 319.135 247.782C314.106 257.203 307.813 265.897 302.78 275.275C302.077 276.585 303.883 278.174 304.934 276.937C311.813 268.84 317.065 258.815 322.054 249.487C327.19 239.885 331.414 230.151 334.904 219.848C335.212 218.939 333.75 218.301 333.334 219.187Z" fill="white"/>
<path d="M296.715 283.57C293.372 287.585 288.808 289.77 284.671 292.772C283.538 293.594 284.164 295.541 285.669 295.138C291.132 293.673 294.893 288.948 297.842 284.439C298.282 283.767 297.241 282.938 296.715 283.57Z" fill="white"/>
<path d="M335.288 199.952C335.288 199.952 321.282 240.704 303.97 265.531C297.045 275.474 289.593 282.852 282.283 284.077C274.746 285.33 268.747 283.963 263.803 280.858C251.934 273.422 246.006 256.045 239.082 240.704C238.968 240.448 238.854 240.177 238.74 239.892C238.654 239.664 238.569 239.436 238.483 239.208C232.442 221.959 242.843 178.885 248.785 157.277C253.843 171.863 261.409 195.408 262.449 208.613C264.031 228.696 272.552 246.231 276.228 238.924C279.904 231.616 284.164 234.821 288.424 238.924C292.443 242.769 310.496 209.823 317.691 188.828C324.359 192.588 330.957 196.619 335.288 199.952Z" fill="#F08175"/>
<path d="M295.935 187.031C295.935 187.031 317.741 196.8 326.288 202.206L295.935 187.031Z" fill="white"/>
<path d="M295.935 187.031C295.935 187.031 317.741 196.8 326.288 202.206" stroke="white" stroke-width="1.33795" stroke-miterlimit="10" stroke-linecap="round" stroke-linejoin="round"/>
<path d="M321.883 211.532C323.497 211.532 324.805 210.224 324.805 208.611C324.805 206.998 323.497 205.69 321.883 205.69C320.27 205.69 318.961 206.998 318.961 208.611C318.961 210.224 320.27 211.532 321.883 211.532Z" fill="white" stroke="white" stroke-width="1.33795" stroke-miterlimit="10" stroke-linecap="round" stroke-linejoin="round"/>
<path d="M316.04 222.591C317.653 222.591 318.961 221.284 318.961 219.67C318.961 218.057 317.653 216.75 316.04 216.75C314.426 216.75 313.118 218.057 313.118 219.67C313.118 221.284 314.426 222.591 316.04 222.591Z" fill="white" stroke="white" stroke-width="1.33795" stroke-miterlimit="10" stroke-linecap="round" stroke-linejoin="round"/>
<path d="M207.343 147.073L185.518 147.489L180.899 107.752L180.229 102.048L202.581 102.756L205.333 128.318L207.343 147.073Z" fill="#F5C3C0"/>
<path d="M205.748 128.356C193.39 124.208 185.386 114.785 180.91 107.76L180.229 102.048L202.95 102.757L205.748 128.356Z" fill="#CF8E87"/>
<path d="M212.925 118.79C210.656 120.222 205.349 120.384 200.963 118.79C192.99 119.145 183.685 112.24 177.178 105.314C174.736 102.739 172.959 99.8528 171.649 96.9226C167.629 88.2647 167.741 79.5403 167.741 79.5403C167.052 74.39 167.008 69.7059 167.852 65.599C168.917 60.4266 171.405 56.253 175.757 53.4337C178.333 51.7909 181.553 50.6143 185.506 49.9928C203.227 47.24 236.45 47.3836 230.469 72.153C224.488 96.9226 228.076 109.223 212.925 118.79Z" fill="#F5C3C0"/>
<path d="M153.491 101.925C148.654 83.2974 142.216 64.9551 148.78 45.777C152.365 35.3004 158.126 28.9196 168.785 25.6393C182.179 21.5171 199.307 20.0671 208.92 32.8988C210.762 35.3585 214.215 32.76 212.29 30.2996C199.073 13.4112 165.949 13.6594 151.138 28.8766C132.489 48.0378 140.862 82.3272 149.999 103.396C150.879 105.425 154.019 103.956 153.491 101.925Z" fill="white"/>
<path d="M223.8 40.9575C228.825 47.118 231.935 56.5099 233.816 64.1063C235.469 70.7772 234.719 78.4483 238.093 84.462C238.905 85.9091 240.852 85.4041 241.37 84.0338C244.126 76.7408 240.921 65.5412 238.443 58.4473C235.534 50.1178 231.291 45.5818 224.714 40.0434C224.072 39.5024 223.275 40.3134 223.8 40.9575Z" fill="white"/>
<path d="M204.95 119.587C192.988 120.384 183.685 112.24 177.178 105.314C174.736 102.739 172.959 99.8525 171.649 96.9223C167.629 88.2644 167.741 79.54 167.741 79.54C167.052 74.3897 167.008 69.7056 167.852 65.5987C168.917 60.4263 171.405 56.2527 175.757 53.4333C176.001 53.6775 176.201 53.9661 176.335 54.2992C178.2 58.9166 182.441 63.179 182.441 63.179C182.441 63.179 188.472 105.179 204.95 119.587Z" fill="#EFA097"/>
<path d="M178.474 90.4463L178.889 96.6684L171.641 96.9261C167.634 88.2557 167.745 79.5308 167.745 79.5308C167.046 74.3886 166.998 69.6999 167.847 65.6045C172.543 64.9845 180.443 73.2495 180.443 73.2495L181.623 87.6026L178.474 90.4463Z" fill="#3B3736"/>
<path d="M175.087 89.881C175.087 89.881 169.561 81.7681 163.121 86.0707C156.681 90.3732 163.404 113.115 180.259 103.19L175.087 89.881Z" fill="#F5C3C0"/>
<path d="M159.614 70.3517C161.252 73.7387 166.068 81.8557 168.267 84.9086L181.824 87.6988L180.628 74.9435C180.628 74.9435 186.991 75.7488 189.176 71.2127C189.231 71.1095 189.279 71.003 189.32 70.8938C189.934 69.403 192.446 62.6985 193.068 51.7608C193.068 51.7608 208.794 61.8295 217.837 64.2212C221.091 65.0822 225.142 64.4125 229.002 63.1928C236.745 60.7533 244.848 50.007 244.824 41.8914C244.824 41.8382 244.824 41.7851 244.824 41.732C244.648 29.7738 237.351 36.9487 237.351 36.9487C237.351 36.9487 237.072 27.3344 231.315 25.7878C225.557 24.2412 220.485 32.2691 220.485 32.2691C209.644 27.9052 198.08 25.6147 186.393 25.5167C163.211 25.4609 166.456 41.9313 166.456 41.9313C166.456 41.9313 148.96 44.6657 159.614 70.3517Z" fill="#5B1C10"/>
<path d="M168.267 84.9086L181.824 87.6988L178.634 90.489L179.033 96.8667H177.836L175.045 89.6918C172.616 86.8921 170.659 85.7058 168.267 84.9086Z" fill="#5B1C10"/>
<path d="M262.449 314.004C262.449 314.004 242.701 327.707 221.014 335.413L210.983 306.497L191.249 338.105C173.623 335.683 142.718 329.829 116.757 316.497L133.499 244.921L131.847 209.753L129.04 150.199C129.04 150.199 158.377 137.935 189.91 134.374C189.91 134.374 230.575 136.852 252.475 144.501C252.475 144.501 257.106 208.243 248.913 253.467L255.125 281.229L262.449 314.004Z" fill="#EE9087"/>
<path d="M148.397 138.831C153.208 138.637 158.426 137.08 162.888 135.34C164.885 134.561 164.141 131.44 161.981 132.053C157.386 133.358 152.494 134.486 148.039 136.188C146.715 136.694 146.77 138.896 148.397 138.831Z" fill="white"/>
<path d="M213.095 129.148C228.233 132.646 243.038 135.462 257.87 140.303C258.879 140.632 259.574 139.045 258.601 138.57C244.96 131.9 228.553 127.149 213.272 127.84C212.55 127.872 212.332 128.972 213.095 129.148Z" fill="white"/>
<path d="M170.4 132.483C171.854 132.412 173.247 132.289 174.583 131.681C175.911 131.077 177.167 130.233 178.065 129.076C178.774 128.163 178.955 126.937 178.065 126.047C177.29 125.272 175.796 125.169 175.035 126.047C173.665 127.625 172.082 129.368 170.08 130.122C168.896 130.568 168.948 132.553 170.4 132.483Z" fill="white"/>
<path d="M262.558 295.185C264.397 298.884 265.723 302.579 266.297 306.673C266.649 309.183 266.603 311.603 268.747 313.204C269.421 313.707 270.212 313.005 270.27 312.329C270.403 310.794 269.871 309.52 269.578 308.018C269.241 306.289 269.099 304.511 268.524 302.835C267.478 299.791 265.456 297.167 263.665 294.538C263.2 293.857 262.19 294.443 262.558 295.185Z" fill="white"/>
<path d="M262.449 314.004C262.449 314.004 242.701 327.706 221.014 335.412L211.61 308.292L210.983 306.497L210.043 307.993L191.249 338.105C173.623 335.683 142.718 329.829 116.757 316.496L118.211 310.272L125.378 279.633L133.499 244.921L131.847 209.752C146.964 231.033 172.412 250.376 182.629 254.165C196.749 259.393 222.909 253.553 236.089 250.561C249.269 247.57 225.631 259.222 212.365 265.931C205.612 269.349 207.706 276.585 217.979 280.616C225.759 283.678 238.241 284.903 255.125 281.228L257.875 293.521L262.449 314.004Z" fill="#F08175"/>
<path d="M257.875 293.521C251.25 298.934 234.237 312.337 229.193 311.483C226.457 311.013 219.09 309.674 211.61 308.292L210.983 306.497L210.043 307.993C200.81 306.284 191.904 304.617 191.904 304.617L188.641 318.348C188.641 318.348 142.248 313.676 118.21 310.272L125.377 279.633L217.979 280.616C225.759 283.679 238.241 284.904 255.125 281.229L257.875 293.521Z" fill="#D36265"/>
<path d="M209.105 238.928C209.105 238.928 211.206 283.193 210.972 300.633L209.105 238.928Z" fill="white"/>
<path d="M209.105 238.928C209.105 238.928 211.206 283.193 210.972 300.633" stroke="white" stroke-width="1.33795" stroke-miterlimit="10" stroke-linecap="round" stroke-linejoin="round"/>
<path d="M199.077 257.765C201.068 257.765 202.682 256.152 202.682 254.162C202.682 252.171 201.068 250.558 199.077 250.558C197.086 250.558 195.472 252.171 195.472 254.162C195.472 256.152 197.086 257.765 199.077 257.765Z" fill="white"/>
<path d="M200.234 286.712C202.225 286.712 203.839 285.099 203.839 283.108C203.839 281.118 202.225 279.505 200.234 279.505C198.243 279.505 196.629 281.118 196.629 283.108C196.629 285.099 198.243 286.712 200.234 286.712Z" fill="#1B2D3D"/>
<path d="M225.375 191.093C229.607 199.742 232.081 213.298 232.081 213.298L208.789 231.403L177.681 219.907C175.872 211.271 176.516 192.82 176.516 192.82L162.739 190.893C156.113 162.959 163.294 141.807 163.294 141.807C167.112 140.651 170.845 139.753 174.479 139.073C189.183 136.271 202.05 136.911 210.741 138.08C218.122 139.087 222.511 140.46 222.511 140.46C228.851 151.449 234.801 186.443 234.801 186.443L225.375 191.093Z" fill="#D36265"/>
<path d="M225.374 189.184C229.606 198.244 231.116 209.097 231.116 209.097L208.789 231.403L176.516 215.422C174.706 206.377 176.516 190.993 176.516 190.993L162.937 187.988C156.311 158.731 163.293 137.564 163.293 137.564C167.112 136.354 170.845 135.414 174.478 134.701C189.183 131.767 202.049 132.437 210.741 133.662C218.122 134.716 222.51 136.154 222.51 136.154C228.851 147.663 234.436 182.889 234.436 182.889L225.374 189.184Z" fill="white"/>
<path d="M207.891 228.996C188.926 197.973 176.53 144.074 174.478 134.701C189.183 131.767 202.049 132.437 210.741 133.662C215.656 183.373 207.891 228.996 207.891 228.996Z" fill="#F19B51"/>
<path d="M195.472 146.858C195.472 146.858 205.216 191.077 207.265 218.156" stroke="white" stroke-width="1.33795" stroke-miterlimit="10" stroke-linecap="round" stroke-linejoin="round"/>
<path d="M182.687 127.685C187.116 126.005 200.82 124.85 206.772 127.685C206.772 127.685 208.75 132.318 208.937 135.303C208.937 135.303 207.048 137.868 198.882 139.233C190.715 140.598 181.026 136.608 181.026 136.608L182.687 127.685Z" fill="#F19B51"/>
<path d="M209.726 138.428C209.682 139.771 209.446 140.849 209.018 141.233C207.555 142.488 199.521 140.436 199.521 140.436C199.521 140.436 197.808 138.192 198.724 135.283C198.724 135.283 198.96 135.076 199.374 134.737C201.072 133.364 205.65 129.821 207.408 130.293C208.944 130.721 209.83 135.283 209.726 138.428Z" fill="#DF6561"/>
<path d="M209.726 138.428C209.682 139.771 209.446 140.849 209.018 141.233C207.555 142.488 199.521 140.436 199.521 140.436C199.521 140.436 197.808 138.192 198.724 135.283C198.724 135.283 198.96 135.077 199.374 134.737C201.294 135.593 202.017 137.07 202.667 138.457C203.287 139.771 208.279 140.539 209.726 138.428Z" fill="#BE5552"/>
<path d="M200.57 139.491C200.245 141.927 198.71 142.887 196.509 143.079C193.703 143.33 191.178 142.843 190.587 138.665C190.262 136.391 190.41 134.797 191.163 133.793C191.798 132.936 192.846 132.493 194.382 132.39C197.336 132.183 200.083 132.981 200.556 137.173C200.659 138.059 200.659 138.827 200.57 139.491Z" fill="#DF6561"/>
<path d="M200.57 139.491C200.245 141.927 198.71 142.886 196.509 143.078C193.703 143.329 191.178 142.842 190.587 138.664C190.262 136.39 190.41 134.796 191.163 133.792C191.325 136.169 192.137 140.731 195.963 140.775C198.429 140.79 199.802 140.155 200.57 139.491Z" fill="#BE5552"/>
<path d="M191.622 135.792C191.622 135.792 183.868 132.16 181.92 133.322C179.972 134.483 181.561 143.461 183.312 144.281C185.063 145.101 192.249 140.965 192.249 140.965C192.249 140.965 193.294 138.344 191.622 135.792Z" fill="#DF6561"/>
<path d="M261.31 267.112C260.398 271.457 258.973 279.348 257.391 283.906C256.821 285.587 256.223 286.812 255.639 287.239C253.43 288.82 236.831 299.361 231.573 301.554C226.315 303.748 183.555 297.537 183.555 297.537L186.177 283.707L187.73 275.545C187.73 275.545 219.818 259.236 223.836 258.124C227.84 257.013 228.809 259.036 227.697 262.113C226.6 265.175 216.64 273.451 216.64 273.451C216.64 273.451 238.07 271.286 241.248 269.748C244.439 268.223 255.226 256.6 259.643 255.504C264.074 254.393 262.549 261.173 261.31 267.112Z" fill="#F5C3C0"/>
<path d="M257.391 283.906C256.821 285.587 256.223 286.812 255.639 287.239C253.43 288.82 236.831 299.361 231.573 301.554C226.315 303.748 183.555 297.537 183.555 297.537L186.177 283.707C198.416 287.225 221.699 291.498 230.433 291.826C237.814 292.111 249.968 287.253 257.391 283.906Z" fill="#EFA097"/>
<path d="M254.523 271.161C254.523 271.161 247.874 276.418 246.924 277.249C245.974 278.08 235.881 281.047 235.881 281.047" stroke="#1B2D3D" stroke-width="1.33795" stroke-miterlimit="10" stroke-linecap="round" stroke-linejoin="round"/>
<path d="M253.572 279.504C253.572 279.504 240.63 287.694 239.086 288.643" stroke="#1B2D3D" stroke-width="1.33795" stroke-miterlimit="10" stroke-linecap="round" stroke-linejoin="round"/>
<path d="M189.597 271.058C189.597 271.058 188.927 280.886 187.588 291.655C186.819 297.808 185.821 304.261 184.596 309.346C184.596 309.346 153.548 307.195 132.873 304.489C125.635 303.548 119.665 302.537 116.758 301.512C105.516 297.609 101.883 290.059 101.598 284.761C101.583 284.405 101.583 283.536 101.612 282.225C101.669 279.861 101.797 276.1 102.025 271.3C103.464 239.593 108.437 163.032 116.758 155.112C116.758 155.112 124.225 152.078 129.041 150.198C129.041 150.198 147.706 166.151 151.34 182.005C151.34 182.005 154.944 232.742 149.644 253.98L148.547 257.939L189.597 271.058Z" fill="#EE9087"/>
<path d="M101.752 184.928C101.798 178.746 104.482 172.142 106.023 166.153C107.408 160.773 108.236 154.815 112.673 151.023C120.31 144.498 132.737 143.975 141.788 140.091C143.187 139.491 142.113 137.571 140.82 137.796C133.597 139.055 126.217 141.397 119.28 143.783C114.899 145.288 110.517 147.322 107.696 151.149C104.517 155.46 103.669 161.324 102.368 166.38C100.659 173.017 99.4129 178.299 100.417 185.109C100.531 185.881 101.746 185.672 101.752 184.928Z" fill="white"/>
<path d="M99.1639 202.741C95.8647 223.779 93.0982 244.948 91.3781 266.19C90.0607 282.459 92.446 299.14 108.22 307.722C109.063 308.181 109.864 307.117 109.23 306.414C106.204 303.064 102.445 300.612 99.6555 297C96.333 292.699 94.6127 287.647 94.0098 282.266C93.1457 274.553 94.4126 266.731 95.2886 259.08C97.4303 240.375 99.0646 221.656 100.121 202.87C100.151 202.331 99.2497 202.194 99.1639 202.741Z" fill="white"/>
<path d="M88.3033 298.47C93.5529 308.304 101.846 316.827 112.065 321.538C113.787 322.332 115.291 319.916 113.579 318.949C103.967 313.521 95.9316 306.855 89.6315 297.693C89.0749 296.884 87.8319 297.587 88.3033 298.47Z" fill="white"/>
<path d="M151.339 182.005C151.339 182.005 152.312 195.692 152.504 211.824L151.339 182.005Z" fill="#D36265"/>
<path d="M137.66 158.819C143.071 164.907 149.383 173.471 151.339 182.005C151.339 182.005 151.854 166.248 146.456 157.748" fill="#D36265"/>
<path d="M187.588 291.655C186.819 297.808 185.821 304.261 184.596 309.346C184.596 309.346 153.548 307.195 132.873 304.489C125.635 303.549 119.665 302.537 116.758 301.512C105.516 297.609 101.883 290.06 101.598 284.761C101.583 284.405 101.583 283.536 101.612 282.226C122.329 289.276 164.862 291.156 187.588 291.655Z" fill="#F08175"/>
<path d="M183.55 272.915C183.55 272.915 182.202 291.669 179.506 301.551L183.55 272.915Z" fill="white"/>
<path d="M183.55 272.915C183.55 272.915 182.202 291.669 179.506 301.551" stroke="white" stroke-width="1.33795" stroke-miterlimit="10" stroke-linecap="round" stroke-linejoin="round"/>
<path d="M158.396 300.633C160.106 300.633 161.492 299.247 161.492 297.537C161.492 295.827 160.106 294.441 158.396 294.441C156.686 294.441 155.299 295.827 155.299 297.537C155.299 299.247 156.686 300.633 158.396 300.633Z" fill="white"/>
<path d="M168.03 301.551C169.74 301.551 171.126 300.165 171.126 298.455C171.126 296.746 169.74 295.36 168.03 295.36C166.319 295.36 164.933 296.746 164.933 298.455C164.933 300.165 166.319 301.551 168.03 301.551Z" fill="white"/>
<path d="M209.692 96.3429C209.768 96.3642 209.849 96.3785 209.932 96.3831C210.151 96.3974 215.311 96.6718 217.312 92.4689C217.525 92.019 217.429 91.4824 217.07 91.1366C213.926 88.1076 211.963 80.9455 211.944 80.8731C211.777 80.2512 211.137 79.8897 210.524 80.0574C209.906 80.225 209.541 80.8599 209.708 81.4774C209.789 81.777 211.619 88.4477 214.826 92.1308C213.268 94.2224 210.107 94.0744 210.072 94.0717C209.436 94.0369 208.889 94.5235 208.852 95.16C208.819 95.7132 209.178 96.1989 209.692 96.3429Z" fill="#5B1C10"/>
<path d="M203.585 105.2C210.019 107.002 214.804 105.497 215.046 105.418C215.654 105.221 215.984 104.57 215.788 103.962L198.731 101.996C198.451 102.572 198.688 103.265 199.263 103.546C200.76 104.279 202.209 104.815 203.585 105.2Z" fill="#5B1C10"/>
<path d="M205.326 69.5043C205.326 69.5043 205.042 64.8304 203.901 63.9414C202.761 63.0524 202.596 65.2803 202.596 65.2803C202.596 65.2803 193.378 63.3308 192.171 72.604C192.171 72.604 196.314 67.5587 205.326 69.5043Z" fill="#5B1C10"/>
<path d="M215.593 70.3019C215.593 70.3019 215.877 65.628 217.018 64.739C218.158 63.85 218.323 66.0779 218.323 66.0779C218.323 66.0779 227.541 64.1284 228.748 73.4016C228.748 73.4016 224.605 68.3563 215.593 70.3019Z" fill="#5B1C10"/>
<path d="M202.29 83.4173C204.269 83.4055 205.862 81.3981 205.847 78.9337C205.832 76.4694 204.216 74.4812 202.237 74.493C200.258 74.5048 198.666 76.5122 198.68 78.9766C198.695 81.4409 200.311 83.4291 202.29 83.4173Z" fill="#5B1C10"/>
<path d="M203.492 79.1368C204.148 79.3206 204.829 78.9376 205.013 78.2814C205.197 77.6252 204.814 76.9442 204.157 76.7605C203.501 76.5767 202.82 76.9597 202.637 77.6159C202.453 78.2721 202.836 78.953 203.492 79.1368Z" fill="white"/>
<path d="M221.146 82.5916C223.125 82.5798 224.717 80.5724 224.702 78.108C224.688 75.6437 223.071 73.6555 221.093 73.6673C219.114 73.6791 217.521 75.6865 217.536 78.1509C217.551 80.6153 219.167 82.6034 221.146 82.5916Z" fill="#5B1C10"/>
<path d="M222.347 78.3111C223.004 78.4949 223.685 78.1119 223.868 77.4557C224.052 76.7995 223.669 76.1186 223.013 75.9348C222.357 75.751 221.676 76.134 221.492 76.7902C221.308 77.4464 221.691 78.1274 222.347 78.3111Z" fill="white"/>
</g>
<g filter="url(#filter0_bi_230_3895)">
<rect width="135.57" height="169.861" rx="7.93224" transform="matrix(-1 0 0 1 488.848 114.835)" fill="white" fill-opacity="0.1"/>
<rect width="135.57" height="169.861" rx="7.93224" transform="matrix(-1 0 0 1 488.848 114.835)" fill="url(#paint0_linear_230_3895)" fill-opacity="0.08"/>
<rect x="-1.07967" y="1.07967" width="133.41" height="167.701" rx="6.85257" transform="matrix(-1 0 0 1 486.689 114.835)" stroke="url(#paint1_linear_230_3895)" stroke-opacity="0.1" stroke-width="2.15933"/>
</g>
<g filter="url(#filter1_bi_230_3895)">
<rect x="339.721" y="123.608" width="137.962" height="169.861" rx="7.93224" fill="white"/>
<rect x="339.721" y="123.608" width="137.962" height="169.861" rx="7.93224" fill="url(#paint2_linear_230_3895)" fill-opacity="0.08"/>
<rect x="340.801" y="124.687" width="135.803" height="167.701" rx="6.85257" stroke="url(#paint3_linear_230_3895)" stroke-opacity="0.1" stroke-width="2.15933"/>
</g>
<circle r="23.3305" transform="matrix(-1 0 0 1 436.809 172.457)" fill="#83B7AD"/>
<path d="M431.123 172.71C431.961 173.411 434.441 175.812 434.794 179.918C434.81 180.099 434.965 180.237 435.147 180.237H438.568C438.75 180.237 438.905 180.099 438.921 179.918C439.275 175.812 441.754 173.411 442.592 172.71C442.739 172.587 442.76 172.368 442.638 172.218C440.651 169.777 438.544 165.75 437.509 163.663C437.463 163.57 437.324 163.604 437.324 163.707V172.514C437.576 172.67 437.744 172.947 437.744 173.266C437.744 173.817 437.242 174.25 436.672 174.134C436.337 174.065 436.064 173.796 435.992 173.461C435.907 173.066 436.088 172.701 436.39 172.514V163.71C436.39 163.607 436.251 163.573 436.205 163.666C435.17 165.753 433.064 169.778 431.077 172.218C430.955 172.368 430.976 172.587 431.123 172.71Z" fill="white"/>
<path d="M434.652 184.085H439.062C439.344 184.085 439.573 183.856 439.573 183.574V181.586C439.573 181.304 439.344 181.075 439.062 181.075H434.652C434.371 181.075 434.142 181.304 434.142 181.586V183.574C434.142 183.856 434.371 184.085 434.652 184.085Z" fill="white"/>
<path d="M448.306 161.182H425.365" stroke="white" stroke-width="0.645606" stroke-miterlimit="10"/>
<path d="M448.306 161.916C447.938 161.916 447.639 161.617 447.639 161.248C447.639 160.88 447.938 160.581 448.306 160.581C448.675 160.581 448.974 160.88 448.974 161.248C448.974 161.617 448.675 161.916 448.306 161.916Z" fill="#DF9334"/>
<path d="M425.366 161.916C424.997 161.916 424.698 161.617 424.698 161.248C424.698 160.88 424.997 160.581 425.366 160.581C425.735 160.581 426.034 160.88 426.034 161.248C426.034 161.617 425.735 161.916 425.366 161.916Z" fill="#DF9334"/>
<path d="M447.074 171.426C447.074 165.772 442.49 161.189 436.836 161.189C431.182 161.189 426.599 165.772 426.599 171.426" stroke="white" stroke-width="0.645606" stroke-miterlimit="10"/>
<path d="M436.028 160.291H437.645V161.908H436.028V160.291Z" fill="#B9233E"/>
<rect width="102.873" height="7.17722" transform="matrix(-1 0 0 1 460.139 230.468)" fill="#83B7AD"/>
<rect width="102.873" height="7.17722" transform="matrix(-1 0 0 1 460.139 215)" fill="#83B7AD"/>
<rect width="102.873" height="7.17722" transform="matrix(-1 0 0 1 460.139 246.417)" fill="#83B7AD"/>
<rect width="102.873" height="7.17722" transform="matrix(-1 0 0 1 460.139 260.772)" fill="#83B7AD"/>
<g filter="url(#filter2_bi_230_3895)">
<rect x="0.000488281" y="356.468" width="133.975" height="106.861" rx="7.93224" fill="white" fill-opacity="0.1"/>
<rect x="0.000488281" y="356.468" width="133.975" height="106.861" rx="7.93224" fill="url(#paint4_linear_230_3895)" fill-opacity="0.08"/>
<rect x="1.08015" y="357.548" width="131.815" height="104.701" rx="6.85257" stroke="url(#paint5_linear_230_3895)" stroke-opacity="0.1" stroke-width="2.15933"/>
</g>
<g filter="url(#filter3_bi_230_3895)">
<rect width="136.367" height="106.861" rx="7.93224" transform="matrix(-1 0 0 1 147.533 362.051)" fill="white"/>
<rect width="136.367" height="106.861" rx="7.93224" transform="matrix(-1 0 0 1 147.533 362.051)" fill="url(#paint6_linear_230_3895)" fill-opacity="0.08"/>
<rect x="-1.07967" y="1.07967" width="134.208" height="104.701" rx="6.85257" transform="matrix(-1 0 0 1 145.373 362.051)" stroke="url(#paint7_linear_230_3895)" stroke-opacity="0.1" stroke-width="2.15933"/>
</g>
<rect width="58.2152" height="4.78481" rx="2.39241" transform="matrix(-1 0 0 1 128.392 381.987)" fill="#EFE3EC"/>
<rect width="34.2911" height="4.78481" rx="2.39241" transform="matrix(-1 0 0 1 128.392 389.165)" fill="#EFE3EC"/>
<rect width="20.7342" height="20.7342" rx="6.37975" transform="matrix(-1 0 0 1 55.0259 390.759)" fill="#F4C584"/>
<rect width="7.17722" height="46.2532" transform="matrix(-1 0 0 1 133.975 413.088)" fill="#77B0A8"/>
<rect width="7.17722" height="34.2911" transform="matrix(-1 0 0 1 105.266 425.051)" fill="#EE7C92"/>
<rect width="7.17722" height="25.519" transform="matrix(-1 0 0 1 76.5571 433.823)" fill="#92BEFA"/>
<rect width="7.17722" height="15.1519" transform="matrix(-1 0 0 1 50.2407 444.19)" fill="#EE7C92"/>
<rect width="7.17722" height="32.6962" transform="matrix(-1 0 0 1 125.203 426.646)" fill="#EF988F"/>
<rect width="7.17722" height="23.9241" transform="matrix(-1 0 0 1 96.4937 435.417)" fill="#FCECEB"/>
<rect width="7.17722" height="17.5443" transform="matrix(-1 0 0 1 67.7847 441.797)" fill="#F18A7E"/>
<rect width="7.17722" height="10.3671" transform="matrix(-1 0 0 1 41.4683 448.975)" fill="#EF9890"/>
<defs>
<filter id="filter0_bi_230_3895" x="320.889" y="82.4455" width="200.35" height="234.641" filterUnits="userSpaceOnUse" color-interpolation-filters="sRGB">
<feFlood flood-opacity="0" result="BackgroundImageFix"/>
<feGaussianBlur in="BackgroundImage" stdDeviation="16.195"/>
<feComposite in2="SourceAlpha" operator="in" result="effect1_backgroundBlur_230_3895"/>
<feBlend mode="normal" in="SourceGraphic" in2="effect1_backgroundBlur_230_3895" result="shape"/>
<feColorMatrix in="SourceAlpha" type="matrix" values="0 0 0 0 0 0 0 0 0 0 0 0 0 0 0 0 0 0 127 0" result="hardAlpha"/>
<feOffset dy="5.39833"/>
<feGaussianBlur stdDeviation="10.7967"/>
<feComposite in2="hardAlpha" operator="arithmetic" k2="-1" k3="1"/>
<feColorMatrix type="matrix" values="0 0 0 0 1 0 0 0 0 1 0 0 0 0 1 0 0 0 0.4 0"/>
<feBlend mode="normal" in2="shape" result="effect2_innerShadow_230_3895"/>
</filter>
<filter id="filter1_bi_230_3895" x="307.331" y="91.2177" width="202.742" height="234.641" filterUnits="userSpaceOnUse" color-interpolation-filters="sRGB">
<feFlood flood-opacity="0" result="BackgroundImageFix"/>
<feGaussianBlur in="BackgroundImage" stdDeviation="16.195"/>
<feComposite in2="SourceAlpha" operator="in" result="effect1_backgroundBlur_230_3895"/>
<feBlend mode="normal" in="SourceGraphic" in2="effect1_backgroundBlur_230_3895" result="shape"/>
<feColorMatrix in="SourceAlpha" type="matrix" values="0 0 0 0 0 0 0 0 0 0 0 0 0 0 0 0 0 0 127 0" result="hardAlpha"/>
<feOffset dy="5.39833"/>
<feGaussianBlur stdDeviation="10.7967"/>
<feComposite in2="hardAlpha" operator="arithmetic" k2="-1" k3="1"/>
<feColorMatrix type="matrix" values="0 0 0 0 1 0 0 0 0 1 0 0 0 0 1 0 0 0 0.4 0"/>
<feBlend mode="normal" in2="shape" result="effect2_innerShadow_230_3895"/>
</filter>
<filter id="filter2_bi_230_3895" x="-32.3895" y="324.078" width="198.755" height="171.641" filterUnits="userSpaceOnUse" color-interpolation-filters="sRGB">
<feFlood flood-opacity="0" result="BackgroundImageFix"/>
<feGaussianBlur in="BackgroundImage" stdDeviation="16.195"/>
<feComposite in2="SourceAlpha" operator="in" result="effect1_backgroundBlur_230_3895"/>
<feBlend mode="normal" in="SourceGraphic" in2="effect1_backgroundBlur_230_3895" result="shape"/>
<feColorMatrix in="SourceAlpha" type="matrix" values="0 0 0 0 0 0 0 0 0 0 0 0 0 0 0 0 0 0 127 0" result="hardAlpha"/>
<feOffset dy="5.39833"/>
<feGaussianBlur stdDeviation="10.7967"/>
<feComposite in2="hardAlpha" operator="arithmetic" k2="-1" k3="1"/>
<feColorMatrix type="matrix" values="0 0 0 0 1 0 0 0 0 1 0 0 0 0 1 0 0 0 0.4 0"/>
<feBlend mode="normal" in2="shape" result="effect2_innerShadow_230_3895"/>
</filter>
<filter id="filter3_bi_230_3895" x="-21.2244" y="329.661" width="201.147" height="171.641" filterUnits="userSpaceOnUse" color-interpolation-filters="sRGB">
<feFlood flood-opacity="0" result="BackgroundImageFix"/>
<feGaussianBlur in="BackgroundImage" stdDeviation="16.195"/>
<feComposite in2="SourceAlpha" operator="in" result="effect1_backgroundBlur_230_3895"/>
<feBlend mode="normal" in="SourceGraphic" in2="effect1_backgroundBlur_230_3895" result="shape"/>
<feColorMatrix in="SourceAlpha" type="matrix" values="0 0 0 0 0 0 0 0 0 0 0 0 0 0 0 0 0 0 127 0" result="hardAlpha"/>
<feOffset dy="5.39833"/>
<feGaussianBlur stdDeviation="10.7967"/>
<feComposite in2="hardAlpha" operator="arithmetic" k2="-1" k3="1"/>
<feColorMatrix type="matrix" values="0 0 0 0 1 0 0 0 0 1 0 0 0 0 1 0 0 0 0.4 0"/>
<feBlend mode="normal" in2="shape" result="effect2_innerShadow_230_3895"/>
</filter>
<linearGradient id="paint0_linear_230_3895" x1="5.64873" y1="33.9722" x2="154.453" y2="50.4672" gradientUnits="userSpaceOnUse">
<stop stop-color="#FE82DB"/>
<stop offset="1" stop-color="#68E4FF"/>
</linearGradient>
<linearGradient id="paint1_linear_230_3895" x1="4.23655" y1="7.72095" x2="135.57" y2="7.72095" gradientUnits="userSpaceOnUse">
<stop stop-color="#FD84DC"/>
<stop offset="1" stop-color="#7FD6FA"/>
</linearGradient>
<linearGradient id="paint2_linear_230_3895" x1="345.47" y1="157.58" x2="496.835" y2="174.655" gradientUnits="userSpaceOnUse">
<stop stop-color="#FE82DB"/>
<stop offset="1" stop-color="#68E4FF"/>
</linearGradient>
<linearGradient id="paint3_linear_230_3895" x1="344.033" y1="131.329" x2="477.683" y2="131.329" gradientUnits="userSpaceOnUse">
<stop stop-color="#FD84DC"/>
<stop offset="1" stop-color="#7FD6FA"/>
</linearGradient>
<linearGradient id="paint4_linear_230_3895" x1="5.58276" y1="377.84" x2="150.063" y2="402.999" gradientUnits="userSpaceOnUse">
<stop stop-color="#FE82DB"/>
<stop offset="1" stop-color="#68E4FF"/>
</linearGradient>
<linearGradient id="paint5_linear_230_3895" x1="4.1872" y1="361.326" x2="133.975" y2="361.326" gradientUnits="userSpaceOnUse">
<stop stop-color="#FD84DC"/>
<stop offset="1" stop-color="#7FD6FA"/>
</linearGradient>
<linearGradient id="paint6_linear_230_3895" x1="5.68196" y1="21.3722" x2="152.586" y2="47.4093" gradientUnits="userSpaceOnUse">
<stop stop-color="#FE82DB"/>
<stop offset="1" stop-color="#68E4FF"/>
</linearGradient>
<linearGradient id="paint7_linear_230_3895" x1="4.26147" y1="4.85731" x2="136.367" y2="4.85731" gradientUnits="userSpaceOnUse">
<stop stop-color="#FD84DC"/>
<stop offset="1" stop-color="#7FD6FA"/>
</linearGradient>
<clipPath id="clip0_230_3895">
<rect width="304.633" height="466.519" fill="white" transform="matrix(-1 0 0 1 369.228 17.5442)"/>
</clipPath>
</defs>
</svg>
