<svg width="520" height="608" viewBox="0 0 520 608" fill="none" xmlns="http://www.w3.org/2000/svg">
<path d="M479.691 533.556C471.436 499.663 489.925 370.268 339.203 360.167C229.231 352.796 227.956 505.705 104.951 425.563" stroke="#DED2FA" stroke-width="3.03309" stroke-linecap="round" stroke-linejoin="round" stroke-dasharray="10.11 10.11"/>
<path d="M19.2916 573.379C57.4168 559.585 95.4762 567.706 120.6 550.686C145.724 533.666 187.059 563.653 217.046 563.654C247.033 563.654 321.597 557.98 333.754 587.968C345.91 617.955 -96.3115 615.206 19.2916 573.379Z" fill="#E8E9EB"/>
<path fill-rule="evenodd" clip-rule="evenodd" d="M175.158 534.004C175.158 534.004 174.938 548.125 183.603 553.141C192.269 558.157 205.695 567.476 205.695 567.476L154.623 569.209L156.078 533.877L175.158 534.004Z" fill="#F8CFCF"/>
<path fill-rule="evenodd" clip-rule="evenodd" d="M152.839 549.565L152.008 572.472H163.871L164.683 569.52C164.683 569.52 169.151 569.337 171.731 570.613C174.459 571.96 174.826 572.615 174.826 572.615L212.454 572.694C212.454 572.694 214.31 565.29 202.84 559.934C191.371 554.578 183.018 546.976 181.433 546.198C179.834 545.414 176.61 544.971 174.339 546.813C172.07 548.654 170.274 553.496 165.129 553.646C158.508 553.843 154.703 545.691 152.839 549.565Z" fill="#4B4B4B"/>
<path d="M184.996 548.683L181.096 552.455" stroke="white" stroke-width="2" stroke-linecap="round"/>
<path d="M190.683 551.542L186.782 555.316" stroke="white" stroke-width="2" stroke-linecap="round"/>
<path d="M196.373 554.404L192.471 558.177" stroke="white" stroke-width="2" stroke-linecap="round"/>
<path fill-rule="evenodd" clip-rule="evenodd" d="M137.777 228.953C137.777 228.953 151.965 385.179 152.408 396.038C152.848 406.898 147.849 425.641 147.947 445.955C148.044 466.268 149.772 537.863 149.772 537.863L181.072 538.526C181.072 538.526 194.226 409.148 194.369 389.747C194.51 370.346 195.716 230.82 195.716 230.82L137.777 228.953Z" fill="#5A9687"/>
<path opacity="0.283552" fill-rule="evenodd" clip-rule="evenodd" d="M160.339 400.901L160.373 401.288C160.845 407.911 156.731 429.7 148.033 466.656L147.947 445.955C147.852 426.003 152.672 407.568 152.426 396.628L152.408 396.038C152.259 392.379 150.549 372.21 148.348 347.074L149.375 350.755C155.41 372.56 159.064 389.277 160.339 400.901Z" fill="white" fill-opacity="0.192499"/>
<path fill-rule="evenodd" clip-rule="evenodd" d="M99.6494 532.014L93.613 568.58L115.865 568.468L116.569 531.441L99.6494 532.014Z" fill="#F8CFCF"/>
<path fill-rule="evenodd" clip-rule="evenodd" d="M97.255 547.83C95.0765 548.302 93.4977 550.194 93.4247 552.421L93.2448 557.858C90.0969 561.349 88.6105 571.436 88.4533 572.555C88.4436 572.624 88.4371 572.691 88.4452 572.762C88.9072 577.704 121.276 577.643 124.315 572.996C124.453 572.783 124.462 572.532 124.422 572.282C124.082 570.222 122.273 560.248 118.796 557.529L118.775 552.142C118.766 549.949 117.291 548.033 115.173 547.464L111.829 546.566C108.576 541.822 104.142 541.99 100.345 547.159L97.255 547.83Z" fill="#4B4B4B"/>
<path d="M101.607 551.111H110.614" stroke="white" stroke-width="2" stroke-linecap="round"/>
<path d="M101.607 555.399H110.614" stroke="white" stroke-width="2" stroke-linecap="round"/>
<path d="M103.036 559.685H109.18" stroke="white" stroke-width="2" stroke-linecap="round"/>
<path fill-rule="evenodd" clip-rule="evenodd" d="M110.871 231.004C110.871 231.004 100.93 338.093 101.065 358.599C101.199 379.109 104.125 388.115 99.9626 402.826C95.7984 417.538 92.2485 534.964 92.2485 534.964L123.032 538.332C123.032 538.332 142.699 412.68 144.837 395.26C146.975 377.838 173.406 229.525 173.406 229.525L110.871 231.004Z" fill="#80BDAE"/>
<path opacity="0.283552" fill-rule="evenodd" clip-rule="evenodd" d="M119.184 303.687L117.307 310.483C111.809 330.544 106.734 351.757 108.063 382.059L108.128 383.443C108.454 390.006 104.278 428.103 95.5995 497.732L94.7744 502.626C93.9234 507.617 93.1648 511.875 92.5002 515.4L92.6899 509.234C93.7954 475.198 96.773 414.09 99.9598 402.826C104.122 388.115 101.198 379.109 101.062 358.601C100.968 344.244 105.811 287.464 108.726 254.689L110.87 231.004L123.864 230.697L123.896 234.344C124.125 268.016 122.554 291.129 119.184 303.687Z" fill="#5A9687"/>
<path fill-rule="evenodd" clip-rule="evenodd" d="M190.018 60.6172C190.018 60.6172 176.442 53.8108 174.662 51.164C173.118 48.8853 175.135 40.0497 175.135 40.0497C175.135 40.0497 166.884 15.69 170.517 14.517C173.467 13.5594 179.885 31.0803 179.885 31.0803C179.885 31.0803 192.614 29.3119 195.745 31.8667C198.877 34.4214 199.94 53.8478 199.94 53.8478L190.018 60.6172Z" fill="#EABFBF"/>
<path fill-rule="evenodd" clip-rule="evenodd" d="M175.722 37.8501C175.722 37.8501 177.439 32.3121 179.428 32.2271C181.123 32.1542 182.992 38.2835 184.081 38.789C185.171 39.2944 193.449 43.0597 193.685 42.746C193.922 42.4323 182.646 31.2793 179.301 30.9907C176.553 30.7557 175.722 37.8501 175.722 37.8501Z" fill="#F28585"/>
<path fill-rule="evenodd" clip-rule="evenodd" d="M188.029 114.289C172.979 101.286 156.298 122.302 181.498 144.095C191.114 152.411 200.838 163.038 208.243 167.599C220.029 174.858 233.654 165.168 235.799 153.011C238.23 139.233 207.105 53.6736 199 48.0002C192.5 48.0002 190 53.0002 188.029 56.0003C181.432 61.7109 205.86 132.93 205.86 132.93C205.86 132.93 194.451 110.237 188.029 114.289Z" fill="#EE9087"/>
<path fill-rule="evenodd" clip-rule="evenodd" d="M203.023 129.683C203.023 129.683 208.374 138.59 209.028 137.449C209.68 136.309 205.547 125.273 205.547 125.273L206.496 133.503L203.023 129.683Z" fill="black" fill-opacity="0.159856"/>
<path d="M188.722 59.611C188.817 54.1003 193.669 50.3058 199 49.4595" stroke="#C96C62" stroke-linecap="round"/>
<path fill-rule="evenodd" clip-rule="evenodd" d="M129.254 101.598C129.254 101.598 137.907 99.6072 138.208 85.7077C138.508 71.8081 138.297 67.062 138.297 67.062L158.812 66.7249C158.812 66.7249 159.018 82.2161 159.023 87.8197C159.029 100.017 168.27 103.314 168.27 103.314C168.27 103.314 167.504 116.651 150.232 117.604C136.748 118.348 129.254 101.598 129.254 101.598Z" fill="#F8C5C5"/>
<path fill-rule="evenodd" clip-rule="evenodd" d="M133.059 99.2781L157.54 115.157L168.578 102.337C168.578 102.337 191.832 109.534 196.147 117.948C202.372 130.089 194.17 227.368 197.745 233.237C205.365 245.746 195.235 254.334 161.697 257.488C128.16 260.642 98.4079 258.06 103.806 241.366C109.207 224.672 88.3694 115.726 106.74 109.725C112.479 107.85 133.059 99.2781 133.059 99.2781Z" fill="#F08175"/>
<path fill-rule="evenodd" clip-rule="evenodd" d="M116.538 129.313C118.021 131.93 117.256 140.996 114.246 156.512C111.68 169.731 114.614 183.403 122.357 194.435L122.793 195.045C125.411 198.66 127.826 203.419 130.035 209.322C135.456 223.799 122.955 235.868 132.535 258.518L131.376 258.462C112.58 257.491 100.155 252.656 103.805 241.366C108.234 227.679 95.0232 151.975 100.247 121.843C109.291 123.617 114.721 126.106 116.538 129.313Z" fill="black" fill-opacity="0.159856"/>
<path fill-rule="evenodd" clip-rule="evenodd" d="M133.059 99.2781L154.956 113.534C151.747 117.259 150.025 121.592 149.375 126.362C140.959 119.793 132.213 110.612 129.503 100.74L133.059 99.2781Z" fill="#C96C62"/>
<path fill-rule="evenodd" clip-rule="evenodd" d="M159.27 113.163C162.972 115.663 165.926 120.089 168.331 125.122C171.213 119.339 172.317 111.701 172.317 103.556L168.701 102.129L159.27 113.163Z" fill="#C96C62"/>
<path fill-rule="evenodd" clip-rule="evenodd" d="M154.957 113.533L155.242 113.693C156.555 114.424 158.192 114.209 159.27 113.163C167.525 143.379 173.331 176.636 175.087 210.436L166.472 224.723L156.394 211.351C157.707 176.224 157.698 141.972 154.957 113.533Z" fill="#F19B51"/>
<path fill-rule="evenodd" clip-rule="evenodd" d="M95.6357 119.117C103.711 101.778 131.361 113.46 124.393 132.036C117.643 150.03 101.29 192.044 101.29 192.044C101.29 192.044 153.114 198.582 157.154 201.631C162.545 205.698 159.212 217.303 154.631 219.37C150.756 221.118 121.965 222.139 93.7943 219.933C79.8591 218.842 69.5532 212.893 68.1154 197.44C67.1072 186.619 87.8552 135.821 95.6357 119.117Z" fill="#EE9087"/>
<path fill-rule="evenodd" clip-rule="evenodd" d="M101.31 192.035C101.31 192.035 97.0027 200.17 98.233 200.335C99.4649 200.502 105.723 192.63 105.723 192.63L101.31 192.035Z" fill="black" fill-opacity="0.159856"/>
<path d="M153.505 200.747C155.103 205.818 153.98 211.763 151.762 215.966" stroke="#C96C62" stroke-linecap="round"/>
<g clip-path="url(#clip0_230_4128)">
<path d="M240.284 233.654C239.628 234.977 238.023 235.517 236.699 234.86L233.254 233.15L229.611 240.489C228.955 241.811 227.35 242.352 226.027 241.695C224.704 241.038 224.163 239.433 224.82 238.11L228.463 230.771L221.572 227.35L219.862 230.795C219.206 232.118 217.601 232.659 216.277 232.002C214.954 231.345 214.414 229.74 215.071 228.417L216.781 224.972L203.844 218.549C201.943 221.157 199.294 223.114 196.173 224.164C192.195 225.503 187.932 225.212 184.172 223.346C180.412 221.479 177.603 218.26 176.264 214.281C174.925 210.302 175.215 206.04 177.082 202.28C178.949 198.519 182.168 195.711 186.147 194.371C190.126 193.032 194.388 193.323 198.148 195.19C201.909 197.056 204.717 200.275 206.056 204.254C207.106 207.374 207.15 210.667 206.222 213.757L221.531 221.357C221.539 221.361 221.548 221.364 221.556 221.368C221.564 221.372 221.571 221.377 221.579 221.381L233.203 227.152C233.215 227.158 233.227 227.162 233.238 227.167C233.25 227.173 233.261 227.18 233.272 227.186L239.079 230.069C240.401 230.726 240.941 232.331 240.284 233.654ZM195.77 199.981C193.289 198.75 190.477 198.558 187.853 199.441C185.228 200.324 183.104 202.177 181.873 204.658C180.642 207.138 180.45 209.95 181.333 212.575C182.217 215.199 184.069 217.323 186.55 218.554C189.031 219.785 191.842 219.977 194.467 219.093C197.091 218.21 199.215 216.358 200.446 213.877C201.678 211.397 201.869 208.585 200.986 205.96C200.103 203.336 198.25 201.212 195.77 199.981Z" fill="#5A9687"/>
</g>
<path fill-rule="evenodd" clip-rule="evenodd" d="M155.429 205.31C155.429 205.31 162.862 203.825 165.905 201.451C168.947 199.078 178.162 197.4 178.162 197.4L175.214 203.569C175.214 203.569 197.797 201.462 198.332 203.676C198.868 205.889 192.336 208.296 192.336 208.296C192.336 208.296 189.115 214.274 185.996 217.739C183.046 221.019 168.387 220.628 163.248 218.582C158.808 216.814 153.98 217.697 153.98 217.697L155.429 205.31Z" fill="#F8CFCF"/>
<path d="M167.16 85.9618C165.067 87.271 160.172 87.4191 156.125 85.9618C148.771 86.2864 140.187 79.9755 134.185 73.6448C131.932 71.2911 130.293 68.6533 129.084 65.975C125.377 58.0616 125.479 50.0874 125.479 50.0874C124.844 45.3799 124.803 41.0986 125.582 37.3448C126.565 32.6172 128.859 28.8025 132.874 26.2256C135.25 24.7241 138.221 23.6486 141.867 23.0806C158.214 20.5645 188.862 20.6957 183.344 43.3353C177.827 65.975 181.137 77.2179 167.16 85.9618Z" fill="#F5C3C0"/>
<path d="M160 86.95C148.903 87.6845 140.273 80.1809 134.237 73.7995C131.971 71.4269 130.323 68.7679 129.107 66.0682C125.379 58.0913 125.482 50.0532 125.482 50.0532C124.843 45.308 124.802 40.9923 125.585 37.2084C126.574 32.4429 128.881 28.5976 132.919 26C133.145 26.225 133.331 26.4909 133.454 26.7977C135.185 31.0519 139.119 34.979 139.119 34.979C139.119 34.979 144.714 73.6757 160 86.95Z" fill="#EEB6B0"/>
<path d="M132.238 59.6164C132.238 59.6164 127.149 52.2272 121.219 56.1459C115.289 60.0647 121.479 80.7778 137 71.7382L132.238 59.6164Z" fill="#F5C3C0"/>
<path d="M118.182 41.4732C119.697 44.6062 124.152 52.1146 126.185 54.9385L138.726 57.5196L137.619 45.7207C137.619 45.7207 143.505 46.4656 145.527 42.2696C145.577 42.1742 145.621 42.0757 145.659 41.9747C146.227 40.5957 148.551 34.3939 149.126 24.2763C149.126 24.2763 163.673 33.5901 172.038 35.8024C175.047 36.5988 178.795 35.9794 182.365 34.8511C189.528 32.5946 197.022 22.654 197 15.147C197 15.0978 197 15.0486 197 14.9995C196.838 3.93802 190.088 10.5749 190.088 10.5749C190.088 10.5749 189.83 1.68148 184.504 0.250866C179.178 -1.17975 174.487 6.24617 174.487 6.24617C164.459 2.20949 153.762 0.0907754 142.952 0.000130878C121.509 -0.0514892 124.511 15.1838 124.511 15.1838C124.511 15.1838 108.327 17.7132 118.182 41.4732Z" fill="#5B1C10"/>
<path d="M126.185 54.9385L138.726 57.5196L135.775 60.1006L136.144 66H135.037L132.455 59.3631C130.208 56.7733 128.398 55.676 126.185 54.9385Z" fill="#5B1C10"/>
<path d="M164.503 65.5138C164.574 65.5335 164.648 65.5468 164.725 65.551C164.928 65.5643 169.701 65.818 171.552 61.9304C171.749 61.5142 171.66 61.0179 171.328 60.698C168.42 57.8963 166.604 51.2713 166.586 51.2044C166.432 50.6291 165.84 50.2948 165.273 50.4499C164.702 50.6049 164.363 51.1922 164.518 51.7634C164.593 52.0405 166.286 58.2109 169.252 61.6177C167.811 63.5524 164.887 63.4154 164.855 63.413C164.267 63.3808 163.761 63.8309 163.726 64.4196C163.696 64.9314 164.028 65.3807 164.503 65.5138Z" fill="#5B1C10"/>
<path d="M162.95 70.8961C168.901 69.2293 173.327 70.6215 173.551 70.6943C174.113 70.877 174.418 71.4789 174.237 72.0412L158.46 73.8595C158.2 73.3273 158.42 72.6858 158.951 72.4263C160.336 71.7484 161.677 71.2525 162.95 70.8961Z" fill="#5B1C10"/>
<path d="M160.465 40.6886C160.465 40.6886 160.202 36.3652 159.147 35.5429C158.093 34.7206 157.94 36.7814 157.94 36.7814C157.94 36.7814 149.413 34.9781 148.297 43.5558C148.297 43.5558 152.129 38.8889 160.465 40.6886Z" fill="#5B1C10"/>
<path d="M169.962 41.4264C169.962 41.4264 170.225 37.103 171.279 36.2807C172.334 35.4584 172.487 37.5192 172.487 37.5192C172.487 37.5192 181.014 35.7159 182.13 44.2936C182.13 44.2936 178.297 39.6267 169.962 41.4264Z" fill="#5B1C10"/>
<path d="M175.098 52.7942C176.929 52.7832 178.402 50.9265 178.388 48.6469C178.374 46.3674 176.879 44.5283 175.049 44.5393C173.218 44.5502 171.745 46.407 171.759 48.6865C171.773 50.9661 173.268 52.8051 175.098 52.7942Z" fill="#5B1C10"/>
<path d="M176.099 47.5059C176.706 47.6758 177.336 47.3216 177.506 46.7146C177.676 46.1076 177.321 45.4778 176.714 45.3078C176.107 45.1378 175.477 45.4921 175.307 46.099C175.137 46.706 175.492 47.3359 176.099 47.5059Z" fill="white"/>
<path d="M156.364 53.2747C158.194 53.2637 159.667 51.4069 159.654 49.1274C159.64 46.8479 158.145 45.0088 156.314 45.0197C154.484 45.0307 153.011 46.8875 153.025 49.167C153.038 51.4465 154.533 53.2856 156.364 53.2747Z" fill="#5B1C10"/>
<path d="M157.364 47.9863C157.971 48.1563 158.601 47.8021 158.771 47.1951C158.941 46.5881 158.587 45.9582 157.98 45.7882C157.373 45.6183 156.743 45.9725 156.573 46.5795C156.403 47.1865 156.757 47.8164 157.364 47.9863Z" fill="white"/>
<g filter="url(#filter0_bi_230_4128)">
<rect x="348" y="182" width="133.975" height="106.861" rx="7.93224" fill="white" fill-opacity="0.1"/>
<rect x="348" y="182" width="133.975" height="106.861" rx="7.93224" fill="url(#paint0_linear_230_4128)" fill-opacity="0.08"/>
<rect x="349.08" y="183.08" width="131.815" height="104.701" rx="6.85257" stroke="url(#paint1_linear_230_4128)" stroke-opacity="0.1" stroke-width="2.15933"/>
</g>
<g filter="url(#filter1_bi_230_4128)">
<rect width="136.367" height="106.861" rx="7.93224" transform="matrix(-1 0 0 1 495.532 187.582)" fill="white"/>
<rect width="136.367" height="106.861" rx="7.93224" transform="matrix(-1 0 0 1 495.532 187.582)" fill="url(#paint2_linear_230_4128)" fill-opacity="0.08"/>
<rect x="-1.07967" y="1.07967" width="134.208" height="104.701" rx="6.85257" transform="matrix(-1 0 0 1 493.373 187.582)" stroke="url(#paint3_linear_230_4128)" stroke-opacity="0.1" stroke-width="2.15933"/>
</g>
<rect width="58.2152" height="4.78481" rx="2.39241" transform="matrix(-1 0 0 1 476.392 207.519)" fill="#EFE3EC"/>
<rect width="34.2911" height="4.78481" rx="2.39241" transform="matrix(-1 0 0 1 476.392 214.696)" fill="#EFE3EC"/>
<rect width="20.7342" height="20.7342" rx="6.37975" transform="matrix(-1 0 0 1 403.025 216.291)" fill="#F4C584"/>
<rect width="7.17722" height="46.2532" transform="matrix(-1 0 0 1 481.975 238.62)" fill="#77B0A8"/>
<rect width="7.17722" height="34.2911" transform="matrix(-1 0 0 1 453.266 250.582)" fill="#EE7C92"/>
<rect width="7.17722" height="25.519" transform="matrix(-1 0 0 1 424.557 259.354)" fill="#92BEFA"/>
<rect width="7.17722" height="15.1519" transform="matrix(-1 0 0 1 398.24 269.721)" fill="#EE7C92"/>
<rect width="7.17722" height="32.6962" transform="matrix(-1 0 0 1 473.202 252.177)" fill="#EF988F"/>
<rect width="7.17722" height="23.9241" transform="matrix(-1 0 0 1 444.493 260.949)" fill="#FCECEB"/>
<rect width="7.17722" height="17.5443" transform="matrix(-1 0 0 1 415.784 267.329)" fill="#F18A7E"/>
<rect width="7.17722" height="10.3671" transform="matrix(-1 0 0 1 389.468 274.506)" fill="#EF9890"/>
<defs>
<filter id="filter0_bi_230_4128" x="315.61" y="149.61" width="198.755" height="171.641" filterUnits="userSpaceOnUse" color-interpolation-filters="sRGB">
<feFlood flood-opacity="0" result="BackgroundImageFix"/>
<feGaussianBlur in="BackgroundImage" stdDeviation="16.195"/>
<feComposite in2="SourceAlpha" operator="in" result="effect1_backgroundBlur_230_4128"/>
<feBlend mode="normal" in="SourceGraphic" in2="effect1_backgroundBlur_230_4128" result="shape"/>
<feColorMatrix in="SourceAlpha" type="matrix" values="0 0 0 0 0 0 0 0 0 0 0 0 0 0 0 0 0 0 127 0" result="hardAlpha"/>
<feOffset dy="5.39833"/>
<feGaussianBlur stdDeviation="10.7967"/>
<feComposite in2="hardAlpha" operator="arithmetic" k2="-1" k3="1"/>
<feColorMatrix type="matrix" values="0 0 0 0 1 0 0 0 0 1 0 0 0 0 1 0 0 0 0.4 0"/>
<feBlend mode="normal" in2="shape" result="effect2_innerShadow_230_4128"/>
</filter>
<filter id="filter1_bi_230_4128" x="326.775" y="155.192" width="201.147" height="171.641" filterUnits="userSpaceOnUse" color-interpolation-filters="sRGB">
<feFlood flood-opacity="0" result="BackgroundImageFix"/>
<feGaussianBlur in="BackgroundImage" stdDeviation="16.195"/>
<feComposite in2="SourceAlpha" operator="in" result="effect1_backgroundBlur_230_4128"/>
<feBlend mode="normal" in="SourceGraphic" in2="effect1_backgroundBlur_230_4128" result="shape"/>
<feColorMatrix in="SourceAlpha" type="matrix" values="0 0 0 0 0 0 0 0 0 0 0 0 0 0 0 0 0 0 127 0" result="hardAlpha"/>
<feOffset dy="5.39833"/>
<feGaussianBlur stdDeviation="10.7967"/>
<feComposite in2="hardAlpha" operator="arithmetic" k2="-1" k3="1"/>
<feColorMatrix type="matrix" values="0 0 0 0 1 0 0 0 0 1 0 0 0 0 1 0 0 0 0.4 0"/>
<feBlend mode="normal" in2="shape" result="effect2_innerShadow_230_4128"/>
</filter>
<linearGradient id="paint0_linear_230_4128" x1="353.582" y1="203.372" x2="498.062" y2="228.53" gradientUnits="userSpaceOnUse">
<stop stop-color="#FE82DB"/>
<stop offset="1" stop-color="#68E4FF"/>
</linearGradient>
<linearGradient id="paint1_linear_230_4128" x1="352.187" y1="186.857" x2="481.975" y2="186.857" gradientUnits="userSpaceOnUse">
<stop stop-color="#FD84DC"/>
<stop offset="1" stop-color="#7FD6FA"/>
</linearGradient>
<linearGradient id="paint2_linear_230_4128" x1="5.68196" y1="21.3722" x2="152.586" y2="47.4093" gradientUnits="userSpaceOnUse">
<stop stop-color="#FE82DB"/>
<stop offset="1" stop-color="#68E4FF"/>
</linearGradient>
<linearGradient id="paint3_linear_230_4128" x1="4.26147" y1="4.85731" x2="136.367" y2="4.85731" gradientUnits="userSpaceOnUse">
<stop stop-color="#FD84DC"/>
<stop offset="1" stop-color="#7FD6FA"/>
</linearGradient>
<clipPath id="clip0_230_4128">
<rect width="106.982" height="106.982" fill="white" transform="matrix(0.947763 -0.318974 -0.318974 -0.947763 202.703 301.677)"/>
</clipPath>
</defs>
</svg>
